<?xml version="1.0" standalone="no"?>
<!DOCTYPE svg PUBLIC "-//W3C//DTD SVG 20010904//EN"
 "http://www.w3.org/TR/2001/REC-SVG-20010904/DTD/svg10.dtd">
<svg version="1.0" xmlns="http://www.w3.org/2000/svg"
 width="225.000000pt" height="225.000000pt" viewBox="0 0 225.000000 225.000000"
 preserveAspectRatio="xMidYMid meet">

<g transform="translate(0.000000,225.000000) scale(0.100000,-0.100000)"
fill="#000000" stroke="none">
<path d="M1366 1845 c18 -46 -58 -57 -202 -31 -137 25 -168 27 -244 16 -97
-14 -201 -62 -245 -113 -65 -76 -72 -210 -15 -295 34 -51 45 -96 37 -153 -6
-47 3 -49 38 -8 33 40 60 94 70 139 14 68 32 90 71 90 52 0 91 -24 102 -64 15
-54 -3 -120 -68 -242 -33 -62 -60 -123 -60 -137 0 -25 18 -44 63 -67 49 -24
155 -118 197 -174 45 -60 62 -124 40 -151 -17 -20 -3 -20 71 1 118 33 180 128
165 247 -10 70 -19 83 -64 91 -50 7 -73 31 -40 40 13 3 37 6 53 6 35 0 55 15
55 42 0 10 7 21 15 24 8 4 15 13 15 22 0 13 -3 12 -14 -3 -13 -18 -19 -18 -67
-8 -53 10 -54 10 -94 -24 -30 -26 -47 -33 -67 -30 -19 2 -28 -1 -28 -10 0 -20
-52 9 -107 60 -40 37 -44 45 -40 74 3 19 13 47 21 64 12 24 13 41 6 81 -14 73
-12 139 5 188 8 23 15 44 15 45 0 2 -34 18 -75 36 -41 18 -73 34 -71 36 1 2
52 -15 112 -38 108 -41 110 -41 207 -35 99 6 132 -1 150 -30 19 -33 98 2 122
53 32 66 -7 201 -71 252 -32 25 -66 28 -58 6z"/>
<path d="M1233 1387 c-63 -18 -63 -27 1 -27 60 0 86 -9 124 -43 l22 -20 0 30
c0 57 -64 84 -147 60z"/>
<path d="M1760 1070 c-156 -115 -286 -214 -288 -220 -2 -6 4 -32 13 -57 10
-24 13 -48 9 -52 -5 -5 -73 -56 -151 -114 l-142 -107 -133 77 c-298 171 -460
295 -674 515 -138 144 -173 166 -239 154 -38 -7 -75 -47 -75 -80 1 -74 114
-202 285 -323 245 -174 575 -367 688 -403 22 -7 36 -17 34 -24 -20 -46 -19
-50 2 -23 19 23 30 27 71 27 41 0 52 4 65 24 8 13 13 29 10 37 -3 10 143 112
460 323 503 335 485 319 450 386 -16 31 -65 70 -87 69 -7 0 -141 -94 -298
-209z m340 150 c9 -16 -21 -41 -253 -206 -144 -103 -276 -198 -294 -212 l-32
-23 -12 23 c-11 20 -10 21 3 11 13 -11 60 19 297 187 154 110 281 203 281 206
0 3 -5 15 -11 26 -8 15 -8 19 0 14 6 -4 15 -16 21 -26z m-1872 -66 c4 -27 -26
-40 -46 -20 -21 20 -8 48 20 44 14 -2 24 -11 26 -24z"/>
</g>
</svg>
